<svg xmlns="http://www.w3.org/2000/svg" xmlns:xlink="http://www.w3.org/1999/xlink" version="1.1" id="Ebene_1" x="0px" y="0px" viewBox="0 0 119.9 44.7" style="enable-background:new 0 0 119.9 44.7;" xml:space="preserve">
<style type="text/css">
	.st0{fill:#E42415;}
</style>
    <path class="st0" d="M12.8,13.5H5.3V2.5C5.3,1.1,4.2,0,2.9,0S0.4,1.1,0.4,2.5V16c0,1.4,1.1,2.5,2.5,2.5h10c5.8,0,10.6,4.8,10.6,10.6  s-4.7,10.6-10.6,10.6H2.5c-1.4,0-2.5,1.1-2.5,2.5s1.1,2.5,2.5,2.5h10.3c8.5,0,15.5-7,15.5-15.6S21.4,13.5,12.8,13.5z"/>
    <path class="st0" d="M66.9,26.6l-10,0c-2.2,0-4.1-1.8-4.1-4.1c0-2.2,1.8-4.1,4.1-4.1h15.3c1.4,0,2.5-1.1,2.5-2.5s-1.1-2.5-2.5-2.5  H56.8c-5,0-9,4-9,9c0,5,4,9,9,9l10,0c2.2,0,4.1,1.8,4.1,4.1c0,2.2-1.8,4.1-4.1,4.1H50.8c-1.4,0-2.5,1.1-2.5,2.5s1.1,2.5,2.5,2.5  h16.1c5,0,9-4.1,9-9C75.9,30.6,71.8,26.6,66.9,26.6z"/>
    <path class="st0" d="M117.2,39.7l-10.2,0V18.5h10.4c1.4,0,2.5-1.1,2.5-2.5s-1.1-2.5-2.5-2.5H107V2.5c0-1.4-1.1-2.5-2.5-2.5  S102,1.1,102,2.5v12.9c0,0.1,0,0.2,0,0.3c0,0.1,0,0.2,0,0.3v23.7c0,2.7,2.2,4.9,4.9,4.9h10.3c1.4,0,2.5-1.1,2.5-2.5  S118.6,39.7,117.2,39.7z"/>
    <path class="st0" d="M45.7,0.6c-1.2-0.6-2.7,0-3.3,1.2l-8.9,19.1c-0.6,1.2,0,2.7,1.2,3.3c0.3,0.2,0.7,0.2,1,0.2  c0.9,0,1.8-0.5,2.2-1.4l8.9-19.1C47.5,2.6,46.9,1.1,45.7,0.6z"/>
    <path class="st0" d="M94.1,0.6c-1.2-0.6-2.7,0-3.3,1.2l-8.9,19.1c-0.6,1.2,0,2.7,1.2,3.3c0.3,0.2,0.7,0.2,1,0.2  c0.9,0,1.8-0.5,2.2-1.4l8.9-19.1C95.9,2.6,95.3,1.1,94.1,0.6z"/>
</svg>
