<svg id="Layer_1" data-name="Layer 1" xmlns="http://www.w3.org/2000/svg" width="300" height="100" viewBox="0 0 300 100"><title>ETERNIT_white-logo_R</title><path d="M269,70.22c-5.22,5.88-13,10.9-19.42,10.9-5.49,0-8.73-1.78-8.66-6.54-3.83,3.77-8.86,6.54-13.94,6.54-4.36,0-7.34-1.12-8.26-4a19.36,19.36,0,0,1-11.17,4c-6.28,0-9.65-2.31-8.39-8.79l3-14.73c1.26-6.08-1.32-6.34-3-6.34-2.58,0-5.88,2.77-7.93,12.75l-3.37,16.65H175.46l7.2-35.09H195l-1,4.69a16.42,16.42,0,0,1,11.77-5.61c4.22,0,9.31,2.05,9.31,8.46a15,15,0,0,1-.33,3l-3.17,15.53c-.33,1.72.2,3,1.85,3a10,10,0,0,0,5.15-2.25c.14-.92.34-2.05.53-3.24.66-3,4.83-23.72,4.83-23.72h12.35L231,71.61c-.33,1.72.13,3,1.85,3s5.42-1.52,9.12-6.54l3.5-17h-5.55L241,45.37h5.62l2.71-13.28h12.35L259,45.31h7.26L265.13,51h-7.27L253.7,71.48c-.33,1.71.2,3,1.85,3S262,71.74,266.78,67ZM173.21,44.65c-4.75,0-8.06,2.57-10.83,5.61l1-4.69H151l-4,19.5c-6.21,7.26-13.15,10.44-18.44,10.44-5,0-9-3.9-8-11.83h21.87a19,19,0,0,0,.92-3.24c1.46-8.52-2-16.19-12.82-16.19-11.43,0-21,8.06-22.79,18.7a18.76,18.76,0,0,0,.06,7.2c-5,3.64-8.32,4.5-9.71,4.5-1.65,0-2.18-1.32-1.85-3l4.16-20.49h7.6l1.12-5.61h-7.6l2.71-13.22H91.87L89.16,45.44H78.59c-11-.07-22.34-2.51-22.34-16a22.8,22.8,0,0,1,.2-3c.93-9.06,7.67-17,20.75-17,4.36.07,6.94,1.92,8.19,4.7l-7.79,6.6C77,25.88,80.77,30,86.06,30a10.94,10.94,0,0,0,10.7-9.19,9.12,9.12,0,0,0,.07-1.38c.06-7.93-8.26-14.34-21-14.34-17,0-30.2,9.64-32,21.47-1.65,10.57,5,17.91,11.76,20.68C41.52,51.39,32.14,61.43,31.14,71.74,29.89,84.23,39.8,94.93,54,94.93c13.74,0,24.64-6.14,30.33-12.88l-2-3.24a26.6,26.6,0,0,1-17.12,6.48,37.94,37.94,0,0,1-3.83-.2C52.42,84.23,46.14,78.41,46,71c-.2-15,13.81-19.89,26-19.89H88L83.68,72.2C82.42,78.68,85.79,81,92.07,81c5.81,0,11.5-2.71,17.05-7.2,2.51,4.56,7.73,7.27,14.93,7.27,8.13,0,15.2-3.17,21.48-8.73l-1.72,8.33h12.36L159.54,64c1.52-7.47,3.63-10.9,5.68-12.16A6.38,6.38,0,0,0,170.64,59a5.49,5.49,0,0,0,1,.06,8.22,8.22,0,0,0,7.93-7.2,6.38,6.38,0,0,0-5.42-7.14A4.5,4.5,0,0,0,173.21,44.65Zm-43.87,3.17c4,0,5.48,3.3,3.37,12H121.08C123,51.19,126,47.82,129.34,47.82Zm101.43-6.28a8.28,8.28,0,0,0,7.93-7.2,6.34,6.34,0,0,0-5.42-7.14,5.49,5.49,0,0,0-1-.06,8.28,8.28,0,0,0-7.93,7.2,6.38,6.38,0,0,0,5.42,7.14A5.49,5.49,0,0,0,230.77,41.54Z" fill="#fff"/><path d="M257,11.09a6,6,0,1,1,12,0,6,6,0,0,1-12,0Zm10.73,0a4.73,4.73,0,1,0-9.46,0,4.73,4.73,0,1,0,9.46,0Zm-7-3.18h2.43c1.33,0,2.49.52,2.49,2a1.77,1.77,0,0,1-1.2,1.68l1.48,2.53h-1.46L263.25,12H262v2.13h-1.31ZM262.78,11c.85,0,1.39-.33,1.39-1s-.36-1-1.31-1H262v2Z" fill="#fff"/></svg>