<svg id="Ebene_1" data-name="Ebene 1" xmlns="http://www.w3.org/2000/svg" viewBox="0 0 627.68 87.18"><defs><style>.cls-1{fill:#1e1e1c;}.cls-1,.cls-2{fill-rule:evenodd;}.cls-2,.cls-4{fill:#e20d18;}.cls-3{fill:#e52b19;}</style></defs><title>Logo-Holz-Gross-RGB</title><path class="cls-1" d="M600.79,296.16c0-9.52-7.19-17.26-16.21-17.26s-16.21,7.74-16.21,17.26c0,9.74,7.19,17.47,16.21,17.47s16.21-7.73,16.21-17.47m24.21,0c0-23.9-18.06-43.38-40.42-43.38s-40.41,19.48-40.41,43.38c0,24.12,18.06,43.59,40.41,43.59S625,320.28,625,296.16" transform="translate(-98.38 -252.78)"/><path class="cls-1" d="M677.65,311.74h16.2l-15.18-38.49c-3.49-8.63,2.46-18.15,11.08-18.15h36.3v26.11h-16.2L725,319.71a14.12,14.12,0,0,1,1,5.09c0,7.08-5.32,13.06-12.1,13.06h-36.3V311.74" transform="translate(-98.38 -252.78)"/><path class="cls-1" d="M625.14,311.74v26.12h36.3c6.77,0,12.1-6,12.1-13.06a10.76,10.76,0,0,0-1-5.09l-15.18-38.5h16.2V255.1H637.23c-6.76,0-12.09,5.76-12.09,13a14.34,14.34,0,0,0,1,5.1l15.19,38.49h-16.2" transform="translate(-98.38 -252.78)"/><path class="cls-1" d="M522.28,337.86l-16.2-26.12v26.12H481.87V255.1h40.41c11.69,1.77,20.32,12.39,20.32,25a25.57,25.57,0,0,1-13.54,22.79l21.53,35H522.28m-16.2-43.59V281.21h10.26a6.19,6.19,0,0,1,5.94,6.42c0,3.76-2.65,6.64-5.94,6.64Z" transform="translate(-98.38 -252.78)"/><path class="cls-1" d="M476,323.25V288.08H451.8v22.13c-9.43,4.85-20.31-2.66-20.31-13.73,0-8.4,6.36-15.27,14.16-15.27H476V255.1H445.65c-21.13,0-38.36,18.59-38.36,41.38s17.23,41.38,38.36,41.38l19.07-1.54c6.37-.45,11.29-6.2,11.29-13.07" transform="translate(-98.38 -252.78)"/><polygon class="cls-1" points="292.71 52.33 256.4 52.33 264.61 34.85 300.92 34.85 292.71 52.33"/><path class="cls-2" d="M136.73,337.86h24.2V320.38h-24.2Zm0-17.48h0Z" transform="translate(-98.38 -252.78)"/><rect class="cls-3" y="67.6" width="24.2" height="17.48"/><polygon class="cls-2" points="62.56 63.18 62.56 45.91 0 45.91 0 63.18 24.2 63.18 24.2 54.54 38.35 54.54 38.35 63.18 62.56 63.18"/><polygon class="cls-2" points="24.2 28.43 24.2 24.01 0 24.01 0 41.49 62.56 41.49 62.56 24.01 38.35 24.01 38.35 28.43 24.2 28.43"/><rect class="cls-4" x="38.35" y="2.33" width="24.2" height="17.48"/><rect class="cls-4" y="2.33" width="24.2" height="17.48"/><path class="cls-2" d="M237,272.59c-7.37-12.4-20.09-19.7-33.63-19.7s-26.26,7.3-33.64,19.47l67.27.23" transform="translate(-98.38 -252.78)"/><path class="cls-2" d="M169.76,320.38H237c-15.79,26.1-51.27,26.1-67.27,0" transform="translate(-98.38 -252.78)"/><path class="cls-2" d="M187.4,294.27H163a50.47,50.47,0,0,1,4.31-17.48h72.2a52.13,52.13,0,0,1,4.31,17.48H219.4c-1-8.63-7.79-15.27-16-15.27s-15,6.64-16,15.27" transform="translate(-98.38 -252.78)"/><path class="cls-2" d="M167.3,316h72.2a49.76,49.76,0,0,0,4.31-17.49l-24.41.22c-2.26,20.36-29.54,20.36-32,0H163a51.67,51.67,0,0,0,4.32,17.48V316" transform="translate(-98.38 -252.78)"/><rect class="cls-4" x="147.48" y="2.33" width="24.2" height="17.48"/><rect class="cls-4" x="147.48" y="24.01" width="24.2" height="17.48"/><polygon class="cls-2" points="193.84 63.18 147.49 63.18 147.49 45.91 171.69 45.91 171.69 58.97 193.84 58.97 193.84 63.18"/><path class="cls-2" d="M292,337.84H257.74c-6.56,0-11.9-6-11.9-13v-4.43H292.2v17.48H292" transform="translate(-98.38 -252.78)"/><path class="cls-2" d="M298.37,272.59V255.1h38.77c6.77,0,12.1,5.76,12.1,13a16.61,16.61,0,0,1-.61,4.44H298.37" transform="translate(-98.38 -252.78)"/><polygon class="cls-2" points="199.99 32.86 199.99 24.01 248.61 24.01 242.46 41.49 210.66 41.49 216 32.86 199.99 32.86"/><path class="cls-2" d="M298,316a14.76,14.76,0,0,1,.41-4.22l8-13.05h32.82l-4.51,13.05h20.1V316H298" transform="translate(-98.38 -252.78)"/><path class="cls-2" d="M310.47,337.86a23.72,23.72,0,0,1-12.3-17.49h56.61v17.49H310.47" transform="translate(-98.38 -252.78)"/></svg>