<svg class="branding__image" xmlns="http://www.w3.org/2000/svg" width="180" height="73.8"><path fill="#1D1D1B" d="M53 46.6L66.7 2.5H41.3L27.5 46.6zm28.5-.1l4.2-13.7 4.7 13.7h25.7l-7-21.7 17.5-22.5h-24.8L91 15.6l4.2-13.3H69.6L55.8 46.5z"/><path fill="#1D1D1B" d="M117 25.3c0-12.5 13.9-22.6 31.1-22.6 24.8 0 31 8.9 31 22.6 0 12.5-13.9 22.6-31 22.6-21.9 0-31.1-7.6-31.1-22.6zm29.2 8c3 .7 6.3-2.6 7.4-7.4s-.5-9.1-3.6-9.8-6.3 2.6-7.4 7.4.5 9.1 3.6 9.8z"/><g fill="#FFF"><path d="M16.5 57.8c2.4 0 14.6-11.9 13.3-25.9 0 0-6.5 4.1-9.9-4.6 0 .1 0 0 0 0 1-1.5 3.6-5.5 2.8-10.5 0-.2 0 0 0 0 2.7-1.6 3.9-4.9 2.7-7.8-1-2.1-3.4-3.3-5.7-2.9 0-1.8-1.4-3.3-3.2-3.4a3.4 3.4 0 00-3.2 3.4C11 5.6 8.6 6.8 7.6 9c-1.2 2.9-.1 6.2 2.7 7.8.1 0 0-.2 0 0-.8 5 1.8 9 2.8 10.5 0 0 0 .1 0 0-4.4 8.7-9.9 4.6-9.9 4.6-1.3 13.9 10.9 25.9 13.3 25.9z"/><path d="M16.5 60c-2 0-4.7-2.4-6.5-4.5-2.4-2.6-10-12-8.9-23.8.1-.8.6-1.4 1.3-1.8.7-.3 1.5-.2 2.2.2 0 0 1.2.8 2.6.4 1.2-.3 2.4-1.4 3.5-3.2-1.2-1.9-2.8-5.3-2.6-9.5-2.8-2.3-3.9-6.2-2.4-9.7 1.1-2.5 3.5-4.1 6-4.3.8-1.9 2.6-3.2 4.8-3.3h.2c2.2.1 4 1.5 4.8 3.4 2.5.3 4.8 1.8 5.9 4.2v.1c1.4 3.4.4 7.3-2.4 9.6.3 4.3-1.5 7.8-2.6 9.7.8 1.6 1.8 2.7 2.9 3 1.7.6 3.4-.5 3.5-.5.6-.4 1.4-.4 2.1-.1.7.3 1.1 1 1.2 1.7 1.1 11.8-6.5 21.2-8.9 23.8-1.7 1.7-4.6 4.6-6.7 4.6zM5.3 34.9c.5 10.6 8.8 19.3 11.2 20.6 2.4-1.3 10.8-10.1 11.2-20.7-1.1.2-2.4.2-3.8-.3-2.5-.8-4.5-2.9-5.9-6.3-.2-.3-.3-.7-.3-1v-.1c0-.4.1-.8.4-1.2.9-1.3 3.1-4.7 2.5-9v-.3c0-.9.5-1.7 1.3-2 1.6-1.1 2.3-3.1 1.6-4.9-.6-1.2-2-1.9-3.4-1.7-.6.1-1.3-.1-1.8-.5s-.8-1-.8-1.6c0-.6-.5-1.1-1.1-1.2-.6.1-1.1.6-1.1 1.2 0 .7-.3 1.3-.8 1.7-.5.4-1.2.6-1.8.4-1.3-.3-2.7.4-3.3 1.7-.7 1.7-.1 3.6 1.4 4.8.9.3 1.6 1.1 1.6 2.1 0 .2 0 .5-.1.7-.5 4.1 1.7 7.4 2.5 8.7.2.3.4.8.4 1.2 0 .4-.1.8-.3 1.1-1.9 3.6-4.2 5.8-7 6.4-.9.4-1.8.4-2.6.2z"/></g><path fill="#E1251B" d="M16.5 57.8c2.4 0 14.6-11.9 13.3-25.9 0 0-6.5 4.1-9.9-4.6 0 .1 0 0 0 0 1-1.5 3.6-5.5 2.8-10.5 0-.2 0 0 0 0 2.7-1.6 3.9-4.9 2.7-7.8-1-2.1-3.4-3.3-5.7-2.9 0-1.8-1.4-3.3-3.2-3.4a3.4 3.4 0 00-3.2 3.4C11 5.6 8.6 6.8 7.6 9c-1.2 2.9-.1 6.2 2.7 7.8.1 0 0-.2 0 0-.8 5 1.8 9 2.8 10.5 0 0 0 .1 0 0-4.4 8.7-9.9 4.6-9.9 4.6-1.3 13.9 10.9 25.9 13.3 25.9z"/><path d="M16.5 58.4c-1.3 0-3.6-2.1-5.4-4C8.8 52 1.5 43 2.6 31.8c0-.2.2-.4.4-.5.2-.1.4-.1.6.1 0 0 1.7 1.2 3.8.7 1.9-.4 3.5-2.1 5-4.8-1-1.6-3.4-5.4-2.8-10.2-2.8-1.8-3.9-5.2-2.6-8.3 1-2.2 3.3-3.6 5.7-3.4.3-1.8 1.8-3.2 3.7-3.3 2 .1 3.5 1.5 3.8 3.3 2.4-.1 4.7 1.2 5.7 3.3 1.3 3 .1 6.5-2.6 8.4.6 4.8-1.7 8.7-2.8 10.3 1 2.5 2.4 4.1 4.2 4.6 2.4.8 4.7-.6 4.7-.6.2-.1.4-.1.6 0 .2.1.3.3.3.5 1 11.2-6.2 20.1-8.5 22.6-1.6 1.9-4 3.9-5.3 3.9zM3.7 32.9C3.2 43.1 9.9 51.3 12 53.6c2.4 2.7 4.1 3.6 4.5 3.6.4 0 2.1-.9 4.5-3.6 2.1-2.3 8.8-10.5 8.2-20.7-1 .4-2.9 1-4.9.3-2.1-.7-3.8-2.5-5-5.5-.1-.1-.1-.2-.1-.3 0-.1 0-.3.1-.4.9-1.3 3.5-5.2 2.7-10.1v-.2c0-.3.3-.6.6-.6 2.3-1.5 3.2-4.4 2.2-6.9-.9-1.8-3-2.9-5-2.5-.2 0-.4 0-.5-.1-.1-.1-.2-.3-.2-.5 0-1.5-1.1-2.7-2.6-2.8-1.4.1-2.5 1.3-2.5 2.8 0 .2-.1.4-.2.5-.1.1-.3.2-.5.1-2-.4-4.1.6-5 2.6-1 2.5-.1 5.3 2.2 6.8.3 0 .6.3.6.7 0 .1 0 .2-.1.3-.7 4.8 1.9 8.6 2.7 9.9.1.1.1.2.1.3 0 .1 0 .2-.1.3-1.6 3.2-3.7 5.1-6 5.7-1.7.4-3.1 0-4-.4z"/><path d="M16.5 55.9c.4 0 .7-.3.8-.8 0-.4-.3-.8-.8-.8-.4 0-.8.3-.8.8.1.4.4.8.8.8zm-2-1.8c.4 0 .8-.3.8-.8 0-.4-.3-.8-.8-.8-.4 0-.8.3-.8.8s.3.8.8.8c-.1 0 0 0 0 0zm-1.7-1.9c.4 0 .8-.3.8-.8 0-.4-.3-.8-.8-.8-.4 0-.8.3-.8.8s.4.8.8.8zm-1.5-1.9c.4 0 .8-.3.8-.8 0-.4-.3-.8-.8-.8-.4 0-.8.3-.8.8s.4.8.8.8zm-1.2-1.9c.4 0 .8-.3.8-.8 0-.4-.3-.8-.8-.8-.4 0-.8.3-.8.8s.3.8.8.8zm-1.2-1.9c.4 0 .8-.3.8-.7S9.4 45 9 45s-.8.3-.8.7c-.1.5.3.8.7.8zm-1-1.9c.4 0 .8-.3.8-.8s-.3-.8-.8-.8c-.4 0-.8.3-.8.8.1.4.4.8.8.8zm-.8-2.1c.4 0 .8-.3.8-.7s-.3-.8-.7-.8c-.4 0-.8.3-.8.7-.1.4.2.7.7.8zm-.7-2.1c.4 0 .8-.3.8-.8 0-.4-.3-.8-.8-.8-.4 0-.8.3-.8.8 0 .4.3.8.8.8-.1 0 0 0 0 0zm-.5-2.2c.4 0 .7-.3.8-.7.1-.4-.2-.8-.7-.8s-.8.2-.8.7v.2c-.1.3.3.6.7.6zm12.7 15.9c-.4 0-.8-.3-.8-.7s.3-.8.7-.8.8.3.8.7c0 .5-.3.8-.7.8zm1.6-1.9c-.4 0-.8-.3-.8-.8 0-.4.3-.8.8-.8.4 0 .8.3.8.8s-.4.8-.8.8zm1.5-1.9c-.4 0-.8-.3-.8-.8 0-.4.3-.8.8-.8.4 0 .8.3.8.8s-.4.8-.8.8zm1.2-1.9c-.4 0-.8-.3-.8-.8 0-.4.3-.8.8-.8.4 0 .8.3.8.8s-.3.8-.8.8c.1 0 0 0 0 0zm1.2-1.9c-.4 0-.8-.3-.8-.7s.3-.8.7-.8.8.3.8.7c.1.5-.3.8-.7.8zm1-1.9c-.4 0-.8-.3-.8-.8s.3-.8.8-.8c.4 0 .8.3.8.8-.1.4-.4.8-.8.8zm.9-2.1c-.4 0-.8-.3-.8-.7s.3-.8.7-.8.8.3.8.7c0 .4-.3.8-.7.8zm.6-2.1c-.4 0-.8-.3-.8-.8 0-.4.3-.8.8-.8.4 0 .8.3.8.8 0 .4-.4.8-.8.8zm.5-2.2c-.4 0-.7-.3-.8-.7-.1-.4.2-.8.7-.8.4-.1.8.2.8.7v.2c.1.3-.3.6-.7.6zm-14.5-4.1c.4 0 .8-.3.8-.8 0-.4-.3-.8-.8-.8-.4 0-.8.3-.8.8.1.5.4.8.8.8zm1.9-1.1c.4 0 .8-.3.8-.8 0-.4-.3-.8-.8-.8-.4 0-.8.3-.8.8.1.4.4.8.8.8zm-4.1 1.7c.4 0 .7-.3.7-.8-.1-.4-.4-.7-.8-.7-.3 0-.6.3-.7.7.1.4.4.8.8.8zm6.1-13.1h-.2l-6.4-2.4c-.3-.1-.4-.4-.3-.6.1-.3.4-.4.6-.3l6.4 2.4c.3.1.4.4.3.6 0 .2-.2.3-.4.3zm0 3.2h-.2l-5.9-2.3c-.3-.1-.4-.4-.3-.6.1-.3.4-.4.6-.3l5.9 2.3c.3.1.4.4.3.6 0 .2-.2.3-.4.3zm0 2.4h-.2l-4.9-1.8c-.3-.1-.4-.4-.3-.6.1-.3.4-.4.6-.3l4.9 1.8c.3.1.4.4.3.6 0 .2-.2.3-.4.3z"/><path d="M10.1 19c-.2 0-.4-.1-.5-.3-.1-.3 0-.5.3-.6l6.4-2.4c.3-.1.5 0 .6.3.1.3 0 .5-.3.6L10.3 19h-.2zm.3-2.9c-.2 0-.4-.1-.5-.3-.1-.3 0-.5.3-.6l6.1-2.3c.3-.1.5 0 .6.3.1.3 0 .5-.3.6l-6.1 2.3h-.1zm1-2.9c-.2 0-.4-.1-.5-.3-.1-.3 0-.5.3-.6l5.1-1.9c.3-.1.5 0 .6.3.1.3 0 .5-.3.6l-5.1 1.9h-.1zm5.1 8.4c-.2 0-.4-.1-.5-.3-.1-.3 0-.5.3-.6l6.4-2.4c.3-.1.5 0 .6.3.1.3 0 .5-.3.6l-6.4 2.4h-.1zm0 3.2c-.2 0-.4-.1-.5-.3-.1-.3 0-.5.3-.6l5.9-2.3c.3-.1.5 0 .6.3.1.3 0 .5-.3.6l-5.9 2.3h-.1zm0 2.4c-.2 0-.4-.1-.5-.3-.1-.3 0-.5.3-.6l4.9-1.8c.3-.1.5 0 .6.3.1.3 0 .5-.3.6l-4.9 1.8h-.1z"/><path d="M22.9 19h-.2l-6.4-2.4c-.3-.1-.4-.4-.3-.6.1-.3.4-.4.6-.3l6.4 2.4c.3.1.4.4.3.6 0 .2-.2.3-.4.3zm-.5-3h-.2l-5.9-2.2c-.3-.1-.4-.4-.3-.6.1-.3.4-.4.6-.3l5.9 2.2c.3.1.4.4.3.6 0 .2-.2.3-.4.3zm-1-2.9h-.2l-4.9-1.8c-.3-.1-.4-.4-.3-.6.1-.3.4-.4.6-.3l4.9 1.8c.3.1.4.4.3.6 0 .2-.2.3-.4.3z"/><path d="M10.8 17.3l-1.2-.1c.5-5.7 4.6-10.3 10.1-11.5l.3 1.2c-5 1-8.7 5.2-9.2 10.4z"/><path d="M22.1 17.3c-.5-5-4.1-9.2-9-10.5l.3-1.2c5.4 1.4 9.4 6 10 11.5l-1.3.2zM10.8 36.9c-.4 0-.8 0-1.2-.1-2.8-.4-5.3-2-6.9-4.5-.2-.3-.1-.7.2-.9.3-.2.7-.1.9.2 1.4 2.2 3.6 3.6 6 3.9 2.3.3 4.6-.4 6.3-2 .2-.2.6-.2.9 0 .2.3.2.6 0 .9-1.8 1.6-4 2.5-6.2 2.5z"/><path d="M22.2 36.9c-2.3 0-4.5-.9-6.2-2.4-.3-.2-.3-.6 0-.9.2-.3.6-.3.9 0 1.7 1.6 4 2.3 6.3 2 2.5-.3 4.7-1.7 6-3.9.2-.3.6-.4.9-.2.3.2.4.6.2.9-1.6 2.5-4.1 4.1-6.9 4.5-.4-.1-.8 0-1.2 0z"/><path d="M16.5 34.1c-.3 0-.5-.2-.5-.5V21.1c0-.3.2-.5.5-.5s.5.2.5.5v12.5c0 .3-.2.5-.5.5zm0-17.4c-.3 0-.5-.2-.5-.5V7.8c0-.3.2-.5.5-.5s.5.2.5.5v8.4c0 .3-.2.5-.5.5z"/><path d="M16.5 30.1h-.2c-1.5-.4-3-1.4-3.9-2.7-.2-.3-.1-.7.1-.9.3-.2.7-.1.9.1.8 1.1 2 1.9 3.3 2.3.3.1.5.4.4.8-.1.2-.3.4-.6.4z"/><path d="M16.4 30.1c-.3 0-.5-.2-.6-.4-.1-.3.1-.7.4-.8 1.4-.5 2.6-1.3 3.5-2.4.2-.3.6-.3.9-.1.3.2.3.6.1.9-1.1 1.3-2.5 2.3-4.1 2.8h-.2z"/><path fill="#E1251B" d="M34 68.8h-1.6V57.3h-3.1v-1.5H37v1.5h-3v11.5zm5.7-14.9v7.9c.5-.8 1.4-1.3 2.4-1.3 2.3 0 2.8 1.5 2.8 3.4v4.9h-1.5v-4.6c0-1.4-.2-2.3-1.7-2.3-2 0-2 1.7-2 3.2v3.7h-1.5V53.9h1.5zM48 65c-.1 1.4 1 2.6 2.4 2.6 1 0 2-.6 2.4-1.6l1.3.7c-.7 1.4-2.2 2.2-3.7 2.2-2.1 0-3.9-1.7-3.9-3.8v-.4c0-2.5 1.3-4.3 3.9-4.3s3.7 1.9 3.7 4.2v.4H48zm4.6-1.2c-.1-1.1-1.1-2-2.2-2-1.2 0-2.1.9-2.3 2h4.5zm13.6-5.5c-.4-.8-1.2-1.2-2.1-1.2-1.1-.1-2 .7-2.1 1.8 0 1 1 1.5 1.8 1.8l.9.4c1.8.7 3.2 1.7 3.2 3.9s-1.7 4-3.9 4h-.2c-2 0-3.8-1.6-4-3.6l1.6-.3c-.1 1.3 1 2.5 2.3 2.6 1.3.1 2.5-1 2.6-2.3v-.3c0-1.4-1.1-2-2.2-2.4l-.9-.4c-1.5-.6-2.8-1.5-2.8-3.2.1-1.9 1.7-3.4 3.7-3.3h.1c1.4 0 2.7.7 3.3 1.9l-1.3.6zm4.8-4.4v7.9c.5-.8 1.4-1.3 2.4-1.3 2.3 0 2.8 1.5 2.8 3.4v4.9h-1.5v-4.6c0-1.4-.2-2.3-1.8-2.3-2 0-2 1.7-2 3.2v3.7h-1.5V53.9H71zm9.5 3.2c-.1.6-.6 1-1.2.9-.5-.1-.9-.4-.9-.9-.1-.6.4-1.1.9-1.2.6-.1 1.1.4 1.2.9v.3zm-.3 11.7h-1.5v-8h1.5v8zm4-7c.5-.8 1.4-1.3 2.4-1.3 2.3 0 2.8 1.5 2.8 3.4v4.8h-1.5v-4.6c0-1.4-.2-2.3-1.8-2.3-2 0-2 1.7-2 3.2v3.7h-1.5v-8h1.5l.1 1.1zM99 68.6c0 2.7-.8 4.7-3.9 4.7-2 .2-3.7-1.3-3.8-3.3v-.4h1.5c-.1 1.2.8 2.2 2 2.3h.4c1.9 0 2.3-1.3 2.3-2.9v-1.6c-.6.9-1.6 1.5-2.7 1.5-2.5 0-3.8-2-3.8-4.3-.1-2.2 1.5-4 3.6-4.2h.1c1.1 0 2.2.6 2.8 1.6v-1.3H99v7.9zm-1.4-3.9c.1-1.4-1-2.7-2.4-2.8H95c-1.6.3-2.6 1.8-2.3 3.4.2 1.2 1.1 2.1 2.3 2.3 1.4 0 2.6-1.2 2.6-2.6v-.3zm5 4.1h-1.5V53.9h1.5v14.9zm3.2-3.8c-.1 1.4 1 2.5 2.4 2.6 1 0 2-.6 2.4-1.6l1.3.7c-.7 1.4-2.2 2.2-3.7 2.2-2.1 0-3.9-1.7-3.9-3.8v-.4c0-2.5 1.3-4.3 3.9-4.3s3.7 1.9 3.7 4.2v.4h-6.1zm4.6-1.2c-.1-1.2-1.1-2.1-2.3-2-1.2 0-2.1.9-2.3 2h4.6zm5.9-1.2c-.2-.4-.6-.7-1-.7s-.8.3-.8.8c0 .7.9 1 1.9 1.4.9.4 1.8 1 1.8 2.3 0 1.5-1.2 2.7-2.7 2.6-1.2 0-2.3-.7-2.8-1.8l1.3-.6c.2.6.8 1 1.5 1 .6 0 1.1-.5 1.1-1.1 0-.4-.2-.7-.6-.9l-1.5-.8c-.9-.5-1.5-.9-1.5-2 0-1.3 1-2.3 2.3-2.3h.1c.9 0 1.8.5 2.2 1.4l-1.3.7zm8.5-6.7h6.9v1.5h-5.3V61h5.1v1.5h-5.1v4.9h5.3v1.5h-6.9v-13zm8.1 4.9h1.8l1.9 2.6 2.1-2.6h1.9l-2.9 3.6 3.4 4.3h-1.8l-2.6-3.2-2.5 3.3h-1.9l3.6-4.3-3-3.7zm10.3 1.3c.6-1 1.6-1.6 2.8-1.6 2.2.1 3.8 1.9 3.8 4.1v.1c0 2.3-1.4 4.3-3.8 4.3-1.1 0-2.1-.6-2.7-1.5v5.9h-1.5V60.8h1.5v1.3h-.1zm5 2.6c.1-1.4-1-2.7-2.4-2.8h-.2c-1.6.3-2.6 1.8-2.3 3.4.2 1.2 1.1 2.1 2.3 2.3 1.5 0 2.6-1.2 2.6-2.7v-.2zm4 .3c-.1 1.4 1 2.6 2.4 2.6 1 0 2-.6 2.4-1.6l1.3.7c-.7 1.4-2.1 2.2-3.7 2.2-2.1 0-3.9-1.7-3.9-3.8v-.4c0-2.5 1.3-4.3 3.9-4.3s3.7 1.9 3.7 4.2v.4h-6.1zm4.5-1.2c-.1-1.1-1-2-2.2-2s-2.1.9-2.3 2h4.5zm4.5-1.8c.3-.9 1.2-1.5 2.2-1.5.5 0 .9.1 1.3.4l-.7 1.4c-.3-.2-.6-.3-.9-.3-1.7 0-1.9 1.5-1.9 2.8v4h-1.5v-8h1.5V62zm6.4 6.8h-1.5v-6.6h-.8v-1.4h.8v-3.1h1.5v3.1h1.5v1.4h-1.5v6.6z"/></svg>