<svg width="214" height="32" viewBox="0 0 214 32" xmlns="http://www.w3.org/2000/svg">
    <g fill="#FFF" fill-rule="evenodd">
        <path d="m28.576 31.356-8.687-8.749a.372.372 0 0 0-.264-.11h-7.542a.373.373 0 0 0-.263.11l-8.69 8.747a.379.379 0 0 0 .266.643h24.918a.377.377 0 0 0 .265-.644M3.127.645l8.687 8.748c.07.07.165.11.264.11h7.544c.099 0 .193-.04.263-.11V9.39l8.69-8.743a.377.377 0 0 0-.267-.643H3.392a.377.377 0 0 0-.265.644M.637 28.813l8.688-8.746c.07-.07.11-.166.11-.266v-7.594a.38.38 0 0 0-.109-.265L.639 3.192A.373.373 0 0 0 0 3.462v25.088c0 .209.168.378.375.378.1 0 .195-.04.265-.11M47.335 32h19.94v-9.167h-14.22a1.179 1.179 0 0 1-1.168-1.182V0h-9.105v27.415c0 2.53 2.035 4.58 4.547 4.583l.006.001z"/>
        <path d="M126.84 14.488V25.08h-5.11a1.17 1.17 0 0 1-.83-.346 1.187 1.187 0 0 1-.345-.837v-8.224c0-.314.125-.616.346-.838.22-.223.52-.348.833-.347h5.105zm0-14.487v7.406h-10.837a4.536 4.536 0 0 0-3.22 1.342 4.6 4.6 0 0 0-1.333 3.24v15.427c0 2.528 2.032 4.578 4.543 4.583h19.954V0h-9.108z" fill-rule="nonzero"/>
        <path d="M107.924 11.922c-.036-2.504-2.062-4.515-4.55-4.515h-19.95v24.592h9.108V14.485h5.109c.649 0 1.174.53 1.174 1.183v16.33h9.108V11.921zM163.963 11.922c-.035-2.504-2.061-4.515-4.549-4.515h-19.946v24.592h9.108V14.485h5.109c.311 0 .61.125.83.346.221.222.345.523.345.837v16.33h9.108V11.99l-.005-.069zM212.904 16.574h-7.18c-.312 0-.611.125-.832.347-.22.221-.344.522-.344.836V32h-9.108V11.922c.036-2.503 2.062-4.515 4.55-4.515h12.91l.004 9.167zM70.799 31.997h9.105V7.407h-9.105zM70.799 3.858h9.105V0h-9.105z"/>
        <path d="M187.333 7.393c2.515 0 4.553 2.051 4.556 4.583v9.033h-16.085v2.887a1.18 1.18 0 0 0 1.176 1.184h14.909v6.916H172c-2.515 0-4.554-2.051-4.555-4.584V11.98c0-2.534 2.04-4.587 4.555-4.587zm-3.979 5.858h-6.375c-.647 0-1.172.528-1.173 1.18v2.636h8.727v-2.63c0-.656-.528-1.186-1.179-1.186z" fill-rule="nonzero"/>
    </g>
</svg>
