<?xml version="1.0" encoding="UTF-8" standalone="no"?>
<!DOCTYPE svg PUBLIC "-//W3C//DTD SVG 1.1//EN" "http://www.w3.org/Graphics/SVG/1.1/DTD/svg11.dtd">
<svg width="100%" height="100%" viewBox="0 0 818 203" version="1.1" xmlns="http://www.w3.org/2000/svg" xmlns:xlink="http://www.w3.org/1999/xlink" xml:space="preserve" xmlns:serif="http://www.serif.com/" style="fill-rule:evenodd;clip-rule:evenodd;stroke-linejoin:round;stroke-miterlimit:2;">
    <g transform="matrix(1,0,0,1,-551.232,-438.781)">
        <g id="logo-opti">
            <g>
                <g>
                    <path d="M820.74,601.926C819.833,592.941 817.249,590.266 815.45,587.806C812.955,584.394 807.43,581.158 801.454,579.954C794.861,578.627 782.044,576.728 773.426,574.964C768.982,573.877 767.991,571.101 767.991,566.526C767.991,561.933 770.906,559.454 779.802,559.454C787.034,559.454 791.932,561.607 792.378,570.747L821.244,570.747C821.244,546.374 805.767,536.152 779.811,536.152C759.655,536.152 742.474,540.277 739.216,560.714C738.446,565.545 738.658,570.419 739.172,575.445C739.719,580.791 741.423,584.826 743.665,587.775C746.837,591.946 752.183,595.051 757.187,596.313C764.084,598.052 778.45,600.643 787.068,602.407C791.512,603.494 792.479,606.702 792.503,610.844C792.531,615.438 789.588,617.852 780.693,617.917C774.204,617.965 768.256,615.904 767.833,606.079L738.377,606.079C738.377,631.02 752.664,641.219 780.683,641.219C799.585,641.219 818.559,634.115 820.696,616.656C821.291,611.802 821.248,606.953 820.74,601.926Z" style="fill:rgb(0,113,206);fill-rule:nonzero;"/>
                    <path d="M910.956,567.084C908.552,550.525 898.572,540.409 882.173,537.312C877.994,536.523 873.817,536.132 869.647,536.123C865.478,536.132 861.301,536.523 857.122,537.312C840.723,540.409 830.743,550.525 828.338,567.084C826.355,580.741 826.503,594.566 828.031,608.212C830.088,626.586 840.471,637.125 858.138,640.165C861.967,640.824 865.808,641.144 869.647,641.142C873.487,641.144 877.327,640.824 881.156,640.165C898.823,637.124 909.206,626.586 911.263,608.212C912.791,594.566 912.939,580.741 910.956,567.084ZM882.545,602.704C882.545,609.837 878.841,615.62 869.647,615.62C860.453,615.62 856.749,609.837 856.749,602.704C856.749,602.689 856.752,602.673 856.752,602.657L856.752,574.024C856.752,574.008 856.749,573.993 856.749,573.977C856.749,566.844 860.756,561.061 869.647,561.061C878.538,561.061 882.545,566.844 882.545,573.977C882.545,573.993 882.543,574.008 882.543,574.024L882.543,602.657C882.543,602.673 882.545,602.689 882.545,602.704Z" style="fill:rgb(0,113,206);fill-rule:nonzero;"/>
                    <path d="M968.67,537.39C964.147,536.949 940.459,536.857 940.459,536.857L918.679,536.906L918.679,640.261L947.623,640.261L947.623,607.504C947.623,607.504 961.909,607.517 968.67,607.105C990.67,606.079 998.032,594.679 998.032,572.175C998.032,547.411 987.621,539.142 968.67,537.39ZM958.509,583.139L947.602,583.139L947.602,561.324C947.602,561.324 958.496,561.322 958.509,561.322C964.534,561.322 968.67,561.832 968.67,572.23C968.67,583.139 964.534,583.139 958.509,583.139Z" style="fill:rgb(0,113,206);fill-rule:nonzero;"/>
                    <path d="M1054.24,537.39C1049.72,536.949 1026.03,536.857 1026.03,536.857L1004.25,536.906L1004.25,640.261L1004.41,640.261C1005.93,640.26 1018.53,640.253 1033.17,640.245L1033.17,607.503C1033.17,607.503 1044.07,607.501 1044.08,607.501C1050.11,607.501 1054.24,608.012 1054.24,618.41L1054.24,640.261L1082.71,640.261C1082.71,640.12 1082.37,619.943 1082.37,610.422C1082.37,596.182 1066.9,596.958 1066.9,595.294C1066.9,593.567 1083.61,593.373 1083.61,572.23C1083.61,572.212 1083.61,572.194 1083.61,572.175C1083.61,547.411 1073.19,539.142 1054.24,537.39ZM1054.24,572.23L1054.24,572.23C1054.24,583.139 1050.11,583.139 1044.08,583.139L1033.17,583.139L1033.17,572.23L1033.18,572.23L1033.18,561.324C1033.18,561.324 1044.07,561.322 1044.08,561.322C1050.11,561.322 1054.24,561.832 1054.24,572.23L1054.24,572.23Z" style="fill:rgb(0,113,206);fill-rule:nonzero;"/>
                    <path d="M1118.7,600.975L1153.84,600.975L1153.84,575.946L1118.7,575.946L1118.7,563.127L1157.32,563.127L1157.32,536.857L1089.77,536.857L1089.77,640.261L1157.35,640.261L1157.35,613.735L1118.7,613.735L1118.7,600.975Z" style="fill:rgb(0,113,206);fill-rule:nonzero;"/>
                    <path d="M1221.54,600.501L1219.89,600.503L1210.48,536.857L1164.26,536.857L1164.26,640.261L1192.26,640.261L1192.26,571.903L1193.67,571.747L1204.78,640.256L1236.65,640.255L1247.77,571.745L1249.18,571.901L1249.18,640.26L1277.18,640.26L1277.18,536.855L1230.96,536.855L1221.54,600.501Z" style="fill:rgb(0,113,206);fill-rule:nonzero;"/>
                    <path d="M1302.41,536.857L1281.58,640.261L1308.83,640.261L1311.81,625.684L1338.54,625.671L1341.52,640.248L1368.77,640.248L1347.94,536.856L1302.41,536.857ZM1325.17,600.947L1325.17,600.96L1316.79,600.96L1324.41,563.05L1325.17,563.05L1325.17,563.037L1325.94,563.037L1333.56,600.947L1325.17,600.947Z" style="fill:rgb(0,113,206);fill-rule:nonzero;"/>
                </g>
                <g>
                    <path d="M645.492,480.301C645.145,480.954 644.044,481.211 642.47,481.211C635.376,480.895 621.652,477.119 615.041,473.623C613.852,472.869 613.75,472.63 613.655,472.073C613.515,471.316 614.153,470.597 614.769,469.99L614.761,469.99C614.761,469.99 620.445,464.315 621.146,463.616C621.848,462.914 622.859,461.91 625.131,462.618C627.401,463.326 630.179,464.18 632.138,463.68C634.096,463.18 635.029,463.866 635.683,465.529C636.67,468.073 641.432,476.386 644.324,477.993C645.541,478.761 645.839,479.646 645.492,480.301" style="fill:rgb(124,134,141);fill-rule:nonzero;"/>
                    <path d="M689.074,514.545C689.074,514.545 680.533,518.352 672.853,518.925C670.771,519.212 668.547,525.893 663.499,527.836C660.535,528.974 646.929,528.187 641.008,524.759C640.434,524.383 640.466,524.159 640.544,523.955C640.653,523.671 641.015,523.505 642.369,523.937C650.819,526.54 662.04,526.089 663.4,524.92C664.761,523.756 668.409,520.028 668.253,519.237C668.103,518.483 666.479,517.65 666.004,517.294C665.548,516.95 665.645,516.627 665.924,516.64C684.649,515.618 695.939,508.673 700.908,498.355C711.417,492.077 717.697,482.647 718.817,471.823C719.741,462.815 716.81,453.909 711.15,448.575C710.639,448.1 709.79,447.929 709.164,448.246C708.607,448.534 708.254,449.058 708.366,449.996C708.901,454.346 709.24,458.273 709.24,461.751C709.24,468.876 707.447,473.79 703.908,476.278C703.628,474.043 702.602,470.965 701.72,469.222C701.551,456.517 695.239,445.63 683.922,441.336C680.288,439.94 674.642,438.755 671.855,439.45C669.518,440.036 669.842,441.962 671.15,442.501C672.884,443.22 674.422,443.945 675.661,444.872C680.18,448.25 683.178,452.702 684.346,456.965C682.46,457.094 673.074,459.904 669.202,457.023C665.517,453.642 664.721,453.996 661.562,456.206C658.75,458.17 654.754,457.567 652.697,457.223C650.638,456.878 648.902,457.179 648.338,458.119C647.776,459.055 648.38,461.07 650.159,463.078C654.395,467.823 662.73,471.041 670.629,471.903C677.866,472.69 679.967,477.777 668.017,481.238C640.865,488.158 616.86,477.672 605.14,471.032C601.903,469.151 598.956,470.579 596.963,472.576C591.824,478.386 580.899,483.787 570.421,483.787C568.543,483.787 567.246,484.052 564.75,489.338C557.342,505.077 552.35,534.442 551.232,545.024L575.232,545.024C594.799,555.572 613.139,547.676 616.25,544.568C613.556,540.87 609.013,532.632 607.01,524.556C614.134,532.134 621.099,544.878 621.099,544.878C612.737,556.11 593.812,555.039 587.267,553.44C587.527,560.153 590.645,573.911 592.829,581.454C578.675,604.324 579.308,625.29 579.308,640.162L610.805,640.162C610.805,626.124 617.93,607.685 623.649,602.73C632.708,609.497 637.71,623.673 637.71,640.162L672.135,640.162C674.861,635.005 675.843,628.258 675.821,623.959C675.821,620.218 675.097,615.466 675.097,615.466C675.097,615.466 677.48,614.651 682.621,616.411L682.621,640.303L711.738,640.303L712.371,638.395C715.19,629.874 721.064,612.13 721.064,582.612C721.064,552.72 707.79,524.269 689.074,514.545ZM704.141,480.337C708.554,477.508 710.96,473.21 711.742,466.67C712.371,461.517 711.441,455.376 711.361,454.96C711.223,454.465 711.64,453.635 712.491,454.722C715.025,458.109 716.646,464.446 716.074,471.541C715.504,478.633 711.086,488.068 701.95,494.324C702.248,493.164 704.271,488.528 704.141,480.337ZM660.803,498.18C672.527,495.107 688.101,485.922 689.652,469.952C690.952,456.572 684.979,448.069 677.134,443.307C676.343,442.76 676.958,442.106 677.883,442.275C680.256,442.659 682.351,443.537 684.4,444.504C693.329,448.723 698.852,458.393 698.607,470.828C698.112,496.098 675.765,505.858 665.935,508.886C663.012,509.779 659.909,508.106 658.854,505.526C658.077,503.627 657.605,498.913 660.803,498.18ZM624.868,506.46C622.567,506.46 620.7,504.58 620.7,502.282C620.7,499.988 622.567,498.107 624.868,498.107C627.176,498.107 629.051,499.988 629.051,502.282C629.051,504.58 627.176,506.46 624.868,506.46Z" style="fill:rgb(124,134,141);fill-rule:nonzero;"/>
                    <path d="M581.138,476.171C580.798,476.964 581.165,477.881 581.956,478.221C582.749,478.563 583.667,478.194 584.007,477.404C591.843,459.177 609.72,447.396 629.551,447.396C638.197,447.396 646.721,449.672 654.203,453.969C654.95,454.399 655.904,454.141 656.334,453.396C656.763,452.647 656.505,451.694 655.758,451.263C647.804,446.693 638.742,444.277 629.551,444.277C608.471,444.277 589.468,456.797 581.138,476.171" style="fill:rgb(0,113,206);fill-rule:nonzero;"/>
                    <path d="M574.981,477.345C574.694,478.156 575.12,479.05 575.931,479.337C576.742,479.624 577.637,479.2 577.923,478.386C585.651,456.563 606.4,441.903 629.552,441.903C640.296,441.903 650.706,445.023 659.656,450.927C660.376,451.402 661.344,451.203 661.82,450.482C662.295,449.764 662.095,448.794 661.375,448.321C651.914,442.08 640.911,438.781 629.552,438.781C605.079,438.781 583.149,454.279 574.981,477.345" style="fill:rgb(0,113,206);fill-rule:nonzero;"/>
                    <path d="M588.681,472.639C588.235,473.377 588.469,474.339 589.204,474.783C589.942,475.229 590.901,474.996 591.348,474.262C599.532,460.796 613.814,452.756 629.552,452.756C635.474,452.756 641.236,453.903 646.676,456.163C647.472,456.493 648.386,456.117 648.716,455.321C649.046,454.524 648.671,453.612 647.874,453.279C642.052,450.861 635.888,449.633 629.552,449.633C612.715,449.633 597.437,458.235 588.681,472.639" style="fill:rgb(0,113,206);fill-rule:nonzero;"/>
                </g>
            </g>
        </g>
    </g>
</svg>
