<?xml version="1.0" encoding="UTF-8" standalone="no"?>
<svg
   xmlns:dc="http://purl.org/dc/elements/1.1/"
   xmlns:cc="http://creativecommons.org/ns#"
   xmlns:rdf="http://www.w3.org/1999/02/22-rdf-syntax-ns#"
   xmlns:svg="http://www.w3.org/2000/svg"
   xmlns="http://www.w3.org/2000/svg"
   xmlns:xlink="http://www.w3.org/1999/xlink"
   xmlns:sodipodi="http://sodipodi.sourceforge.net/DTD/sodipodi-0.dtd"
   xmlns:inkscape="http://www.inkscape.org/namespaces/inkscape"
   inkscape:version="1.0 (4035a4f, 2020-05-01)"
   height="272"
   width="778"
   sodipodi:docname="logo.svg"
   xml:space="preserve"
   viewBox="0 0 778 272"
   y="0px"
   x="0px"
   id="Ebene_1"
   version="1.1"><metadata
   id="metadata934"><rdf:RDF><cc:Work
       rdf:about=""><dc:format>image/svg+xml</dc:format><dc:type
         rdf:resource="http://purl.org/dc/dcmitype/StillImage" /><dc:title></dc:title></cc:Work></rdf:RDF></metadata><defs
   id="defs932" /><sodipodi:namedview
   inkscape:current-layer="Ebene_1"
   inkscape:window-maximized="0"
   inkscape:window-y="263"
   inkscape:window-x="2458"
   inkscape:cy="167.5"
   inkscape:cx="389"
   inkscape:zoom="0.69922879"
   showgrid="false"
   id="namedview930"
   inkscape:window-height="1229"
   inkscape:window-width="1861"
   inkscape:pageshadow="2"
   inkscape:pageopacity="0"
   guidetolerance="10"
   gridtolerance="10"
   objecttolerance="10"
   borderopacity="1"
   bordercolor="#666666"
   pagecolor="#ffffff" />
<style
   id="style833"
   type="text/css">
	.st0{clip-path:url(#SVGID_2_);fill:#143660;}
	.st1{clip-path:url(#SVGID_4_);fill:#143660;}
	.st2{clip-path:url(#SVGID_6_);fill:#143660;}
	.st3{fill:#143660;}
	.st4{fill:#868685;}
</style>
<g
   id="g853">
	<defs
   id="defs836">
		<rect
   height="276.04999"
   width="757.46997"
   y="1.23"
   x="10.53"
   id="SVGID_1_" />
	</defs>
	<clipPath
   id="SVGID_2_">
		<use
   height="100%"
   width="100%"
   y="0"
   x="0"
   id="use838"
   style="overflow:visible"
   xlink:href="#SVGID_1_" />
	</clipPath>
	<path
   id="path841"
   clip-path="url(#SVGID_2_)"
   d="m 376.75,145.47 -127.37,0.02 v 92.45 h 11.72 22.8 v -63.78 h 23.92 v 63.78 h 32.92 v -63.78 h 19.06 c 3.29,0 5.86,2.91 5.86,6.26 v 57.52 h 33.17 v -70.08 c 0.01,-12.36 -9.71,-22.39 -22.08,-22.39"
   class="st0" />
	<rect
   id="rect843"
   clip-path="url(#SVGID_2_)"
   height="113.71"
   width="35.009998"
   class="st0"
   y="124.23"
   x="637.72998" />
	<rect
   id="rect845"
   clip-path="url(#SVGID_2_)"
   height="113.71"
   width="35.02"
   class="st0"
   y="124.23"
   x="685.35999" />
	<rect
   id="rect847"
   clip-path="url(#SVGID_2_)"
   height="72.720001"
   width="35.02"
   class="st0"
   y="165.21001"
   x="732.97998" />
	<rect
   id="rect849"
   clip-path="url(#SVGID_2_)"
   height="30.719999"
   width="35.02"
   class="st0"
   y="124.23"
   x="732.97998" />
	<path
   id="path851"
   clip-path="url(#SVGID_2_)"
   d="m 530.69,167.86 c 0,-12.37 9.78,-22.39 22.14,-22.39 h 72.35 v 28.68 l -7.73,26.9 h -33.48 l 8.17,-26.9 h -24.92 c -3.89,0 -7.19,3.51 -7.19,7.41 v 20.85 c 0,3.89 3.27,7.33 7.16,7.33 h 57.49 v 28.2 h -71.56 c -12.36,0 -22.42,-9.51 -22.42,-21.87 v -48.21 z"
   class="st0" />
</g>
<g
   id="g865">
	<defs
   id="defs856">
		<rect
   height="269.41"
   width="757.46997"
   y="1.24"
   x="10.53"
   id="SVGID_3_" />
	</defs>
	<clipPath
   id="SVGID_4_">
		<use
   height="100%"
   width="100%"
   y="0"
   x="0"
   id="use858"
   style="overflow:visible"
   xlink:href="#SVGID_3_" />
	</clipPath>
	<path
   id="path861"
   clip-path="url(#SVGID_4_)"
   d="m 496.17,145.47 c 12.36,0 22.15,10.02 22.15,22.39 l -0.01,48.17 c 0,12.36 -10.24,21.91 -22.6,21.91 H 411.58 V 124.23 h 31.67 v 85.52 h 36.29 c 3.88,0 7.17,-3.28 7.17,-7.17 l 0.01,-21.05 c 0,-3.88 -3.26,-7.36 -7.14,-7.36 h -26.1 l 0.02,-28.68 h 42.67 z"
   class="st1" />
	<polygon
   id="polygon863"
   clip-path="url(#SVGID_4_)"
   points="198.92,209.83 172.21,209.83 183.84,158.96 186.44,143.87 188.8,159.44 213.79,270.64 248.21,270.64 186.21,1.23 131.58,238.09 192.24,238.09 "
   class="st1" />
</g>
<g
   id="g875">
	<defs
   id="defs868">
		<rect
   height="276.04999"
   width="757.46997"
   y="1.23"
   x="10.53"
   id="SVGID_5_" />
	</defs>
	<clipPath
   id="SVGID_6_">
		<use
   height="100%"
   width="100%"
   y="0"
   x="0"
   id="use870"
   style="overflow:visible"
   xlink:href="#SVGID_5_" />
	</clipPath>
	<polygon
   id="polygon873"
   clip-path="url(#SVGID_6_)"
   points="60.17,176.17 10.53,209.84 10.53,238.09 122.7,238.09 122.7,209.84 63.93,209.84 67.48,208.48 121.41,174.23 121.41,145.54 10.53,145.54 10.53,174.23 63.93,174.23 "
   class="st2" />
</g>


</svg>
